<svg width="301" height="65" fill="none" xmlns="http://www.w3.org/2000/svg"><path fill-rule="evenodd" clip-rule="evenodd" d="M26.305.785a5.96 5.96 0 015.915 0l24.6 14.057a2.98 2.98 0 010 5.175l-24.6 14.057a5.96 5.96 0 01-5.915 0L6.165 22.565v8.037L29.263 43.8l24.599-14.056a2.98 2.98 0 014.459 2.587v14.037a4.47 4.47 0 01-2.252 3.882L32.22 63.877a5.96 5.96 0 01-5.915 0L1.706 49.821a2.98 2.98 0 112.958-5.176l24.599 14.057L52.36 45.503v-8.036L32.22 48.976a5.96 5.96 0 01-5.915 0L2.457 35.348a4.47 4.47 0 01-2.252-3.881V17.43a2.98 2.98 0 011.501-2.588L26.306.785zM9.192 17.43l7.032 4.018 10.081-5.761a5.96 5.96 0 015.915 0l10.082 5.76 7.032-4.017L29.263 5.96 9.192 17.43zm27.103 7.45l-7.032-4.018-7.032 4.019 7.032 4.018 7.032-4.018z" fill="url(#prefix__prefix__paint0_linear_23_2)"/><path d="M80.996 42.679c-3.143 0-5.734-1.092-7.773-3.275l3.275-2.987c1.367 1.535 2.83 2.303 4.39 2.303.792 0 1.404-.18 1.836-.54.456-.36.683-.827.683-1.403 0-.36-.084-.648-.251-.864-.144-.24-.456-.468-.936-.684-.48-.216-1.2-.432-2.16-.648-2.279-.551-3.814-1.307-4.606-2.267-.768-.96-1.152-2.147-1.152-3.563 0-1.68.624-3.047 1.872-4.102 1.247-1.08 2.95-1.62 5.11-1.62 1.56 0 2.867.24 3.923.72 1.08.48 2.087 1.32 3.023 2.52l-3.527 2.698c-.432-.671-.936-1.175-1.511-1.511-.576-.336-1.152-.504-1.728-.504-.744 0-1.32.156-1.727.468-.384.288-.576.684-.576 1.187 0 .384.144.72.432 1.008.312.264.971.528 1.98.792 2.566.672 4.318 1.5 5.253 2.483.96.984 1.44 2.231 1.44 3.743 0 1.127-.324 2.16-.972 3.095-.624.911-1.487 1.631-2.591 2.16-1.104.527-2.34.79-3.707.79zm9.056-19.182h4.858v10.257c0 3.095 1.248 4.642 3.743 4.642 1.103 0 2.027-.384 2.771-1.151.744-.792 1.115-1.956 1.115-3.491V23.497h4.859v18.714h-4.715v-2.807c-.455 1.104-1.127 1.92-2.015 2.447-.888.528-2.051.792-3.49.792-1.344 0-2.556-.312-3.636-.936-1.08-.648-1.931-1.547-2.555-2.699-.624-1.176-.935-2.531-.935-4.067V23.497zm30.971 19.182c-1.512 0-2.747-.276-3.707-.828-.936-.576-1.667-1.38-2.195-2.411v9.969h-4.859V23.497h4.787v3.023c.552-1.104 1.295-1.943 2.231-2.52.936-.599 2.183-.899 3.743-.899 1.679 0 3.227.444 4.642 1.332 1.416.887 2.531 2.087 3.347 3.599.84 1.487 1.26 3.119 1.26 4.894 0 1.776-.42 3.407-1.26 4.894a9.552 9.552 0 01-3.347 3.563 8.744 8.744 0 01-4.642 1.296zm-6.046-9.753c0 .984.216 1.883.648 2.7a4.922 4.922 0 001.835 1.943c.816.48 1.739.72 2.771.72 1.008 0 1.895-.24 2.663-.72a5.193 5.193 0 001.836-1.98 5.58 5.58 0 00.683-2.699c0-.984-.216-1.883-.647-2.7a4.931 4.931 0 00-1.836-1.942c-.792-.504-1.691-.756-2.699-.756-1.032 0-1.955.252-2.771.756a4.862 4.862 0 00-1.835 1.979c-.432.816-.648 1.715-.648 2.699zm26.427 9.717c-1.943 0-3.671-.432-5.182-1.296a9.036 9.036 0 01-3.455-3.527c-.816-1.487-1.224-3.13-1.224-4.93 0-1.8.42-3.443 1.26-4.93a9.478 9.478 0 013.491-3.6c1.511-.887 3.215-1.33 5.11-1.33 1.871 0 3.539.443 5.002 1.33a9.221 9.221 0 013.455 3.6c.816 1.487 1.224 3.13 1.224 4.93 0 .624-.048 1.212-.144 1.764H136.69c.287 1.127.827 2.015 1.619 2.663.792.623 1.823.935 3.095.935 1.104 0 2.051-.216 2.843-.648.816-.431 1.428-1.02 1.835-1.763l3.851 2.843c-.768 1.2-1.907 2.16-3.419 2.88-1.511.719-3.215 1.079-5.11 1.079zm4.75-11.804a4.99 4.99 0 00-1.763-2.591c-.84-.696-1.859-1.044-3.059-1.044-1.176 0-2.195.336-3.059 1.008-.84.647-1.404 1.523-1.691 2.627h9.572zm7.055-7.342h4.715v3.563c.336-1.368.983-2.4 1.943-3.095.984-.696 2.267-.996 3.851-.9v4.57h-.684c-1.439 0-2.627.457-3.563 1.368-.935.888-1.403 2.1-1.403 3.635v9.573h-4.859V23.497zm12.125 0h4.859v18.714h-4.859V23.497zm-.504-4.426c0-.792.276-1.464.828-2.016.576-.552 1.272-.828 2.087-.828.84 0 1.536.276 2.088.828.552.552.827 1.224.827 2.016 0 .815-.275 1.5-.827 2.05-.552.553-1.248.829-2.088.829-.815 0-1.511-.276-2.087-.828a2.863 2.863 0 01-.828-2.051zm17.485 23.608c-1.895 0-3.599-.432-5.11-1.296a9.756 9.756 0 01-3.563-3.563 9.765 9.765 0 01-1.296-4.93c0-1.775.432-3.419 1.296-4.93a9.408 9.408 0 013.563-3.563c1.511-.888 3.215-1.332 5.11-1.332 1.895 0 3.599.444 5.11 1.332a9.408 9.408 0 013.563 3.563 9.765 9.765 0 011.296 4.93 9.765 9.765 0 01-1.296 4.93 9.756 9.756 0 01-3.563 3.563c-1.511.864-3.215 1.296-5.11 1.296zm-5.11-9.789c0 .984.204 1.883.612 2.7a5.005 5.005 0 001.799 1.942c.792.48 1.691.72 2.699.72 1.008 0 1.895-.24 2.663-.72a4.682 4.682 0 001.8-1.943c.431-.816.647-1.715.647-2.699 0-.984-.216-1.883-.647-2.7a5.015 5.015 0 00-1.8-1.942c-.768-.504-1.655-.756-2.663-.756-1.008 0-1.895.252-2.663.756a5.005 5.005 0 00-1.799 1.943c-.432.816-.648 1.715-.648 2.7zm17.229-9.393h4.715v3.563c.335-1.368.983-2.4 1.943-3.095.984-.696 2.267-.996 3.851-.9v4.57h-.684c-1.44 0-2.627.457-3.563 1.368-.936.888-1.403 2.1-1.403 3.635v9.573h-4.859V23.497zm25.736 19.182c-3.143 0-5.734-1.092-7.774-3.275l3.275-2.987c1.368 1.535 2.831 2.303 4.391 2.303.791 0 1.403-.18 1.835-.54.456-.36.684-.827.684-1.403 0-.36-.084-.648-.252-.864-.144-.24-.456-.468-.936-.684-.48-.216-1.199-.432-2.159-.648-2.279-.551-3.815-1.307-4.607-2.267-.767-.96-1.151-2.147-1.151-3.563 0-1.68.624-3.047 1.871-4.102 1.248-1.08 2.951-1.62 5.111-1.62 1.559 0 2.867.24 3.922.72 1.08.48 2.088 1.32 3.023 2.52l-3.527 2.698c-.431-.671-.935-1.175-1.511-1.511-.576-.336-1.152-.504-1.727-.504-.744 0-1.32.156-1.728.468-.384.288-.576.684-.576 1.187 0 .384.144.72.432 1.008.312.264.972.528 1.979.792 2.568.672 4.319 1.5 5.255 2.483.959.984 1.439 2.231 1.439 3.743 0 1.127-.324 2.16-.971 3.095-.624.911-1.488 1.631-2.592 2.16-1.103.527-2.339.79-3.706.79zm15.936-.468c-1.895 0-3.323-.468-4.282-1.404-.96-.935-1.44-2.399-1.44-4.39v-8.781h-2.627v-4.139h2.627v-3.779l4.859-.503v4.282h3.958v4.139h-3.958v8.529c0 1.152.503 1.727 1.511 1.727h2.015v4.319h-2.663zm13.548-3.923c1.032 0 1.944-.24 2.735-.72a4.858 4.858 0 001.872-1.943c.432-.816.647-1.715.647-2.699 0-.984-.215-1.883-.647-2.7a4.8 4.8 0 00-1.872-1.978c-.791-.504-1.703-.756-2.735-.756-1.008 0-1.907.252-2.699.756a4.929 4.929 0 00-1.835 1.943c-.432.816-.648 1.715-.648 2.7 0 .959.216 1.858.648 2.698a5.582 5.582 0 001.835 1.98c.792.48 1.691.72 2.699.72zm-10.041-5.362c0-1.775.408-3.407 1.224-4.894.84-1.512 1.967-2.712 3.383-3.6a8.568 8.568 0 014.642-1.33c1.536 0 2.772.287 3.707.863.96.576 1.704 1.404 2.231 2.483v-2.95h4.823V42.21h-4.715v-3.059c-.551 1.128-1.307 2.003-2.267 2.627-.936.6-2.195.9-3.779.9a8.744 8.744 0 01-4.642-1.296 9.84 9.84 0 01-3.383-3.563c-.816-1.487-1.224-3.118-1.224-4.894zm32.218 9.753c-1.992 0-3.755-.432-5.291-1.296-1.511-.887-2.687-2.075-3.527-3.563-.815-1.487-1.223-3.142-1.223-4.966 0-1.823.408-3.479 1.223-4.966.84-1.488 2.016-2.663 3.527-3.527 1.536-.888 3.299-1.332 5.291-1.332 3.214 0 5.734 1.14 7.557 3.42l-3.815 3.13c-.456-.672-1.007-1.188-1.655-1.547-.624-.384-1.344-.576-2.159-.576-1.008 0-1.896.252-2.664.756a5.02 5.02 0 00-1.799 1.943c-.432.816-.648 1.715-.648 2.7 0 .959.216 1.859.648 2.698a5.488 5.488 0 001.871 1.98c.792.48 1.692.72 2.7.72 1.583 0 2.951-.768 4.102-2.304l3.635 3.203c-1.008 1.152-2.135 2.027-3.383 2.627-1.247.6-2.711.9-4.39.9zm14.41-9.357v8.889h-4.859V15.94h4.859v15.115l7.017-7.558h6.91l-8.817 8.71 8.853 10.004h-6.442l-7.521-8.89z" fill="currentColor"/><defs><linearGradient id="prefix__prefix__paint0_linear_23_2" x1="3.185" y1="2.528" x2="55.341" y2="62.135" gradientUnits="userSpaceOnUse"><stop stop-color="#21D4FD"/><stop offset="1" stop-color="#B721FF"/></linearGradient></defs></svg>