<svg width="940" height="197" viewBox="0 0 940 197" fill="none" xmlns="http://www.w3.org/2000/svg">
<path d="M265.817 134.892C259.581 134.892 253.989 133.602 249.043 131.022C244.168 128.369 240.154 124.247 237 118.656L250.011 110.376C251.875 114.104 254.24 116.9 257.108 118.763C260.047 120.556 263.237 121.452 266.677 121.452C270.118 121.452 272.842 120.663 274.849 119.086C276.928 117.509 277.968 115.43 277.968 112.849C277.968 110.556 277.215 108.656 275.71 107.151C274.204 105.645 272.269 104.462 269.903 103.602C267.609 102.742 264.563 101.81 260.763 100.806C254.67 99.2294 249.939 96.7204 246.57 93.2796C243.201 89.767 241.516 85.2151 241.516 79.6237C241.516 75.1792 242.627 71.2366 244.849 67.7957C247.143 64.3548 250.297 61.7025 254.312 59.8387C258.398 57.9032 263.057 56.9355 268.29 56.9355C273.953 56.9355 278.756 58.1183 282.699 60.4839C286.713 62.8495 290.19 66.3262 293.129 70.914L280.226 78.871C278.362 75.8602 276.462 73.7097 274.527 72.4194C272.591 71.0573 270.262 70.3763 267.538 70.3763C264.527 70.3763 262.018 71.129 260.011 72.6344C258.075 74.1398 257.108 76.1111 257.108 78.5484C257.108 80.9857 258.075 82.8495 260.011 84.1398C261.946 85.3584 264.957 86.6129 269.043 87.9032C274.276 89.552 278.362 91.0215 281.301 92.3118C284.24 93.6021 287 95.8602 289.581 99.086C292.233 102.24 293.559 106.47 293.559 111.774C293.559 119.086 291.014 124.785 285.925 128.871C280.835 132.885 274.133 134.892 265.817 134.892Z" fill="black"/>
<path d="M299.652 77.5806H314.168V108.226C314.168 117.473 317.896 122.097 325.351 122.097C328.648 122.097 331.408 120.95 333.631 118.656C335.853 116.29 336.964 112.814 336.964 108.226V77.5806H351.48V133.495H337.394V125.108C336.032 128.405 334.025 130.842 331.372 132.419C328.72 133.996 325.243 134.785 320.942 134.785C316.928 134.785 313.308 133.853 310.082 131.989C306.856 130.054 304.312 127.366 302.448 123.925C300.584 120.412 299.652 116.362 299.652 111.774V77.5806Z" fill="black"/>
<path d="M392.189 134.892C387.673 134.892 383.981 134.068 381.114 132.419C378.318 130.699 376.132 128.297 374.555 125.215V155H360.038V77.5806H374.34V86.6129C375.988 83.3154 378.211 80.8064 381.006 79.086C383.802 77.2939 387.53 76.3979 392.189 76.3979C397.207 76.3979 401.831 77.724 406.06 80.3763C410.289 83.0287 413.623 86.6129 416.06 91.129C418.569 95.5735 419.823 100.448 419.823 105.753C419.823 111.057 418.569 115.932 416.06 120.376C413.623 124.821 410.289 128.369 406.06 131.022C401.831 133.602 397.207 134.892 392.189 134.892ZM374.125 105.753C374.125 108.692 374.77 111.38 376.06 113.817C377.35 116.254 379.178 118.19 381.544 119.624C383.981 121.057 386.741 121.774 389.823 121.774C392.834 121.774 395.487 121.057 397.78 119.624C400.146 118.118 401.974 116.147 403.264 113.71C404.626 111.201 405.307 108.513 405.307 105.645C405.307 102.706 404.662 100.018 403.372 97.5806C402.081 95.1434 400.254 93.2079 397.888 91.7742C395.522 90.2688 392.834 89.5161 389.823 89.5161C386.741 89.5161 383.981 90.2688 381.544 91.7742C379.178 93.2079 377.35 95.1792 376.06 97.6882C374.77 100.125 374.125 102.814 374.125 105.753Z" fill="black"/>
<path d="M453.085 134.785C447.278 134.785 442.117 133.495 437.601 130.914C433.156 128.333 429.715 124.821 427.278 120.376C424.841 115.932 423.622 111.022 423.622 105.645C423.622 100.269 424.877 95.3584 427.386 90.914C429.895 86.3979 433.371 82.8136 437.816 80.1613C442.332 77.509 447.421 76.1828 453.085 76.1828C458.676 76.1828 463.658 77.509 468.031 80.1613C472.475 82.8136 475.916 86.3979 478.353 90.914C480.791 95.3584 482.009 100.269 482.009 105.645C482.009 107.509 481.866 109.265 481.579 110.914H438.999C439.859 114.283 441.472 116.935 443.837 118.871C446.203 120.735 449.285 121.667 453.085 121.667C456.382 121.667 459.214 121.022 461.579 119.731C464.016 118.441 465.844 116.685 467.063 114.462L478.568 122.957C476.274 126.541 472.869 129.409 468.353 131.559C463.837 133.71 458.748 134.785 453.085 134.785ZM467.278 99.5161C466.346 96.362 464.59 93.7814 462.009 91.7742C459.5 89.6953 456.454 88.6559 452.869 88.6559C449.357 88.6559 446.31 89.6595 443.73 91.6667C441.221 93.6022 439.536 96.2186 438.676 99.5161H467.278Z" fill="black"/>
<path d="M488.357 77.5806H502.443V88.2258C503.446 84.1398 505.382 81.0573 508.249 78.9785C511.188 76.8996 515.023 76.0036 519.755 76.2903V89.9462H517.712C513.41 89.9462 509.862 91.3082 507.066 94.0323C504.271 96.6846 502.873 100.305 502.873 104.892V133.495H488.357V77.5806Z" fill="black"/>
<path d="M524.584 77.5806H539.1V133.495H524.584V77.5806ZM523.079 64.3548C523.079 61.9892 523.903 59.9821 525.552 58.3333C527.272 56.6846 529.351 55.8602 531.788 55.8602C534.297 55.8602 536.376 56.6846 538.025 58.3333C539.674 59.9821 540.498 61.9892 540.498 64.3548C540.498 66.7921 539.674 68.8351 538.025 70.4839C536.376 72.1326 534.297 72.957 531.788 72.957C529.351 72.957 527.272 72.1326 525.552 70.4839C523.903 68.7634 523.079 66.7204 523.079 64.3548Z" fill="black"/>
<path d="M575.32 134.892C569.657 134.892 564.567 133.602 560.051 131.022C555.535 128.369 551.987 124.821 549.406 120.376C546.825 115.86 545.535 110.95 545.535 105.645C545.535 100.341 546.825 95.4301 549.406 90.914C551.987 86.3979 555.535 82.8495 560.051 80.2688C564.567 77.6165 569.657 76.2903 575.32 76.2903C580.983 76.2903 586.073 77.6165 590.589 80.2688C595.105 82.8495 598.653 86.3979 601.234 90.914C603.815 95.4301 605.105 100.341 605.105 105.645C605.105 110.95 603.815 115.86 601.234 120.376C598.653 124.821 595.105 128.369 590.589 131.022C586.073 133.602 580.983 134.892 575.32 134.892ZM560.051 105.645C560.051 108.584 560.66 111.272 561.879 113.71C563.169 116.147 564.961 118.082 567.255 119.516C569.621 120.95 572.309 121.667 575.32 121.667C578.331 121.667 580.983 120.95 583.277 119.516C585.643 118.082 587.435 116.147 588.653 113.71C589.944 111.272 590.589 108.584 590.589 105.645C590.589 102.706 589.944 100.018 588.653 97.5806C587.363 95.1434 585.571 93.2079 583.277 91.7742C580.983 90.2688 578.331 89.5161 575.32 89.5161C572.309 89.5161 569.657 90.2688 567.363 91.7742C565.069 93.2079 563.277 95.1434 561.987 97.5806C560.696 100.018 560.051 102.706 560.051 105.645Z" fill="black"/>
<path d="M611.53 77.5806H625.616V88.2258C626.619 84.1398 628.555 81.0573 631.422 78.9785C634.361 76.8996 638.196 76.0036 642.927 76.2903V89.9462H640.884C636.583 89.9462 633.035 91.3082 630.239 94.0323C627.444 96.6846 626.046 100.305 626.046 104.892V133.495H611.53V77.5806Z" fill="black"/>
<path d="M693.615 134.892C687.378 134.892 681.787 133.602 676.84 131.022C671.966 128.369 667.952 124.247 664.797 118.656L677.808 110.376C679.672 114.104 682.038 116.9 684.905 118.763C687.844 120.556 691.034 121.452 694.475 121.452C697.916 121.452 700.64 120.663 702.647 119.086C704.726 117.509 705.765 115.43 705.765 112.849C705.765 110.556 705.012 108.656 703.507 107.151C702.002 105.645 700.066 104.462 697.701 103.602C695.407 102.742 692.36 101.81 688.561 100.806C682.468 99.2294 677.736 96.7204 674.367 93.2796C670.998 89.767 669.314 85.2151 669.314 79.6237C669.314 75.1792 670.425 71.2366 672.647 67.7957C674.941 64.3548 678.095 61.7025 682.109 59.8387C686.195 57.9032 690.855 56.9355 696.088 56.9355C701.751 56.9355 706.554 58.1183 710.496 60.4839C714.511 62.8495 717.987 66.3262 720.926 70.914L708.023 78.871C706.159 75.8602 704.26 73.7097 702.324 72.4194C700.389 71.0573 698.059 70.3763 695.335 70.3763C692.324 70.3763 689.815 71.129 687.808 72.6344C685.873 74.1398 684.905 76.1111 684.905 78.5484C684.905 80.9857 685.873 82.8495 687.808 84.1398C689.744 85.3584 692.754 86.6129 696.84 87.9032C702.073 89.552 706.159 91.0215 709.098 92.3118C712.038 93.6021 714.797 95.8602 717.378 99.086C720.03 102.24 721.357 106.47 721.357 111.774C721.357 119.086 718.812 124.785 713.722 128.871C708.633 132.885 701.93 134.892 693.615 134.892Z" fill="black"/>
<path d="M747.905 133.495C742.242 133.495 737.976 132.097 735.109 129.301C732.242 126.505 730.808 122.133 730.808 116.183V89.9462H722.959V77.5806H730.808V66.2903L745.324 64.7849V77.5806H757.152V89.9462H745.324V115.43C745.324 118.871 746.83 120.591 749.84 120.591H755.862V133.495H747.905Z" fill="black"/>
<path d="M788.384 121.774C791.466 121.774 794.19 121.057 796.556 119.624C798.993 118.19 800.857 116.254 802.147 113.817C803.437 111.38 804.083 108.692 804.083 105.753C804.083 102.814 803.437 100.125 802.147 97.6882C800.857 95.1792 798.993 93.2079 796.556 91.7742C794.19 90.2688 791.466 89.5161 788.384 89.5161C785.373 89.5161 782.685 90.2688 780.319 91.7742C777.954 93.2079 776.126 95.1434 774.835 97.5806C773.545 100.018 772.9 102.706 772.9 105.645C772.9 108.513 773.545 111.201 774.835 113.71C776.197 116.147 778.025 118.118 780.319 119.624C782.685 121.057 785.373 121.774 788.384 121.774ZM758.384 105.753C758.384 100.448 759.602 95.5735 762.039 91.129C764.548 86.6129 767.918 83.0287 772.147 80.3763C776.376 77.724 781 76.3979 786.018 76.3979C790.606 76.3979 794.298 77.2581 797.093 78.9785C799.961 80.6989 802.183 83.172 803.76 86.3979V77.5806H818.169V133.495H804.083V124.355C802.434 127.724 800.176 130.341 797.308 132.204C794.513 133.996 790.749 134.892 786.018 134.892C781 134.892 776.376 133.602 772.147 131.022C767.918 128.369 764.548 124.821 762.039 120.376C759.602 115.932 758.384 111.057 758.384 105.753Z" fill="black"/>
<path d="M854.643 134.892C848.693 134.892 843.424 133.602 838.836 131.022C834.32 128.369 830.808 124.821 828.299 120.376C825.861 115.932 824.643 110.986 824.643 105.538C824.643 100.09 825.861 95.1434 828.299 90.6989C830.808 86.2545 834.32 82.7419 838.836 80.1613C843.424 77.509 848.693 76.1828 854.643 76.1828C864.249 76.1828 871.775 79.5878 877.224 86.3979L865.826 95.7527C864.464 93.7455 862.815 92.2043 860.879 91.129C859.016 89.9821 856.865 89.4086 854.428 89.4086C851.417 89.4086 848.765 90.1613 846.471 91.6667C844.177 93.1004 842.385 95.0358 841.094 97.4731C839.804 99.9104 839.159 102.599 839.159 105.538C839.159 108.405 839.804 111.093 841.094 113.602C842.456 116.039 844.32 118.011 846.686 119.516C849.051 120.95 851.74 121.667 854.75 121.667C859.482 121.667 863.568 119.373 867.008 114.785L877.869 124.355C874.858 127.796 871.489 130.412 867.761 132.204C864.034 133.996 859.661 134.892 854.643 134.892Z" fill="black"/>
<path d="M897.698 106.935V133.495H883.182V55H897.698V100.161L918.666 77.5806H939.311L912.967 103.602L939.419 133.495H920.171L897.698 106.935Z" fill="black"/>
<g clip-path="url(#clip0_2_100)">
<g filter="url(#filter0_di_2_100)">
<path d="M94.9927 180.418L32.327 138.829C28.0181 135.969 28.1911 129.585 32.6486 126.963L95.3159 90.0985C97.5162 88.8041 100.247 88.8102 102.441 90.1143L164.474 126.978C168.896 129.605 169.068 135.945 164.796 138.809L102.762 180.4C100.413 181.974 97.3484 181.981 94.9927 180.418Z" fill="#585858"/>
<path d="M94.9927 180.418L32.327 138.829C28.0181 135.969 28.1911 129.585 32.6486 126.963L95.3159 90.0985C97.5162 88.8041 100.247 88.8102 102.441 90.1143L164.474 126.978C168.896 129.605 169.068 135.945 164.796 138.809L102.762 180.4C100.413 181.974 97.3484 181.981 94.9927 180.418Z" stroke="black" stroke-width="5"/>
</g>
<g filter="url(#filter1_di_2_100)">
<path d="M95.0561 160.422L20.338 110.879C16.0258 108.019 16.1989 101.631 20.6595 99.0096L95.3792 55.0952C97.5783 53.8027 100.306 53.8088 102.5 55.111L176.463 99.0244C180.888 101.652 181.061 107.995 176.785 110.859L102.82 160.404C100.473 161.976 97.4106 161.983 95.0561 160.422Z" fill="#B2B2B2"/>
<path d="M95.0561 160.422L20.338 110.879C16.0258 108.019 16.1989 101.631 20.6595 99.0096L95.3792 55.0952C97.5783 53.8027 100.306 53.8088 102.5 55.111L176.463 99.0244C180.888 101.652 181.061 107.995 176.785 110.859L102.82 160.404C100.473 161.976 97.4106 161.983 95.0561 160.422Z" stroke="black" stroke-width="5"/>
</g>
<g filter="url(#filter2_di_2_100)">
<path d="M95.0973 135.898L9.27235 78.6816C4.97962 75.8197 5.15244 69.4554 9.59415 66.8307L95.4208 16.115C97.627 14.8113 100.369 14.8174 102.57 16.1309L187.528 66.8456C191.934 69.4758 192.106 75.7959 187.85 78.6622L102.89 135.88C100.537 137.465 97.4586 137.472 95.0973 135.898Z" fill="white"/>
<path d="M95.0973 135.898L9.27235 78.6816C4.97962 75.8197 5.15244 69.4554 9.59415 66.8307L95.4208 16.115C97.627 14.8113 100.369 14.8174 102.57 16.1309L187.528 66.8456C191.934 69.4758 192.106 75.7959 187.85 78.6622L102.89 135.88C100.537 137.465 97.4586 137.472 95.0973 135.898Z" stroke="black" stroke-width="5"/>
</g>
</g>
<defs>
<filter id="filter0_di_2_100" x="16.6978" y="78.632" width="163.7" height="117.454" filterUnits="userSpaceOnUse" color-interpolation-filters="sRGB">
<feFlood flood-opacity="0" result="BackgroundImageFix"/>
<feColorMatrix in="SourceAlpha" type="matrix" values="0 0 0 0 0 0 0 0 0 0 0 0 0 0 0 0 0 0 127 0" result="hardAlpha"/>
<feOffset dy="2"/>
<feGaussianBlur stdDeviation="5"/>
<feComposite in2="hardAlpha" operator="out"/>
<feColorMatrix type="matrix" values="0 0 0 0 0 0 0 0 0 0 0 0 0 0 0 0 0 0 0.2 0"/>
<feBlend mode="normal" in2="BackgroundImageFix" result="effect1_dropShadow_2_100"/>
<feBlend mode="normal" in="SourceGraphic" in2="effect1_dropShadow_2_100" result="shape"/>
<feColorMatrix in="SourceAlpha" type="matrix" values="0 0 0 0 0 0 0 0 0 0 0 0 0 0 0 0 0 0 127 0" result="hardAlpha"/>
<feOffset dy="4"/>
<feGaussianBlur stdDeviation="2"/>
<feComposite in2="hardAlpha" operator="arithmetic" k2="-1" k3="1"/>
<feColorMatrix type="matrix" values="0 0 0 0 0 0 0 0 0 0 0 0 0 0 0 0 0 0 0.25 0"/>
<feBlend mode="normal" in2="shape" result="effect2_innerShadow_2_100"/>
</filter>
<filter id="filter1_di_2_100" x="4.7063" y="43.6301" width="187.683" height="132.458" filterUnits="userSpaceOnUse" color-interpolation-filters="sRGB">
<feFlood flood-opacity="0" result="BackgroundImageFix"/>
<feColorMatrix in="SourceAlpha" type="matrix" values="0 0 0 0 0 0 0 0 0 0 0 0 0 0 0 0 0 0 127 0" result="hardAlpha"/>
<feOffset dy="2"/>
<feGaussianBlur stdDeviation="5"/>
<feComposite in2="hardAlpha" operator="out"/>
<feColorMatrix type="matrix" values="0 0 0 0 0 0 0 0 0 0 0 0 0 0 0 0 0 0 0.2 0"/>
<feBlend mode="normal" in2="BackgroundImageFix" result="effect1_dropShadow_2_100"/>
<feBlend mode="normal" in="SourceGraphic" in2="effect1_dropShadow_2_100" result="shape"/>
<feColorMatrix in="SourceAlpha" type="matrix" values="0 0 0 0 0 0 0 0 0 0 0 0 0 0 0 0 0 0 127 0" result="hardAlpha"/>
<feOffset dy="4"/>
<feGaussianBlur stdDeviation="2"/>
<feComposite in2="hardAlpha" operator="arithmetic" k2="-1" k3="1"/>
<feColorMatrix type="matrix" values="0 0 0 0 0 0 0 0 0 0 0 0 0 0 0 0 0 0 0.25 0"/>
<feBlend mode="normal" in2="shape" result="effect2_innerShadow_2_100"/>
</filter>
<filter id="filter2_di_2_100" x="-6.34473" y="4.64148" width="209.785" height="146.932" filterUnits="userSpaceOnUse" color-interpolation-filters="sRGB">
<feFlood flood-opacity="0" result="BackgroundImageFix"/>
<feColorMatrix in="SourceAlpha" type="matrix" values="0 0 0 0 0 0 0 0 0 0 0 0 0 0 0 0 0 0 127 0" result="hardAlpha"/>
<feOffset dy="2"/>
<feGaussianBlur stdDeviation="5"/>
<feComposite in2="hardAlpha" operator="out"/>
<feColorMatrix type="matrix" values="0 0 0 0 0 0 0 0 0 0 0 0 0 0 0 0 0 0 0.2 0"/>
<feBlend mode="normal" in2="BackgroundImageFix" result="effect1_dropShadow_2_100"/>
<feBlend mode="normal" in="SourceGraphic" in2="effect1_dropShadow_2_100" result="shape"/>
<feColorMatrix in="SourceAlpha" type="matrix" values="0 0 0 0 0 0 0 0 0 0 0 0 0 0 0 0 0 0 127 0" result="hardAlpha"/>
<feOffset dy="4"/>
<feGaussianBlur stdDeviation="2"/>
<feComposite in2="hardAlpha" operator="arithmetic" k2="-1" k3="1"/>
<feColorMatrix type="matrix" values="0 0 0 0 0 0 0 0 0 0 0 0 0 0 0 0 0 0 0.25 0"/>
<feBlend mode="normal" in2="shape" result="effect2_innerShadow_2_100"/>
</filter>
<clipPath id="clip0_2_100">
<rect width="197" height="197" fill="white"/>
</clipPath>
</defs>
</svg>
