<svg width="543" height="146" fill="none" xmlns="http://www.w3.org/2000/svg"><g clip-path="url(#prefix__clip0)"><path d="M167.761 43.357h12.647V31.604h-12.647v11.753zm-10.979 70.34h6.049c10.301 0 17.577-7.309 17.577-17.594V49.638h-12.647v45.51c0 4.518-2.419 6.869-6.91 6.869h-4.087v11.68h.018zm73.793-64.059l-1.301 4.445a23.014 23.014 0 00-15.397-5.748c-14.022 0-24.488 10.633-24.488 24.848 0 14.196 10.448 24.922 24.488 24.922 5.957 0 11.144-2.094 15.14-5.675l1.118 4.28h9.861V49.637h-9.421zm-15.671 36.438a12.445 12.445 0 01-9.127-3.706 12.511 12.511 0 01-3.594-9.187 12.471 12.471 0 013.575-9.21 12.43 12.43 0 019.146-3.701 12.4 12.4 0 019.145 3.7 12.454 12.454 0 013.575 9.211 12.464 12.464 0 01-3.582 9.198 12.416 12.416 0 01-9.138 3.695zm67.964-36.438L271.614 81.19l-11.419-31.552h-13.509L265.73 96.71h11.676l18.512-47.07H282.85h.018zm56.27 0l-1.301 4.445a23.014 23.014 0 00-15.396-5.748c-14.022 0-24.488 10.633-24.488 24.848 0 14.196 10.466 24.922 24.488 24.922 5.957 0 11.162-2.094 15.139-5.675l1.119 4.28h9.861V49.637h-9.422zm-15.671 36.438a12.437 12.437 0 01-4.944-.912 12.472 12.472 0 01-6.924-7.017 12.51 12.51 0 01-.852-4.964 12.47 12.47 0 013.574-9.21 12.43 12.43 0 019.146-3.701 12.405 12.405 0 019.146 3.7 12.466 12.466 0 013.574 9.211 12.464 12.464 0 01-3.581 9.198 12.43 12.43 0 01-9.139 3.695zm37.336-42.719h12.538V31.604h-12.538v11.753zm0 53.352h12.629V49.64h-12.647v47.089l.018-.019zm41.278 1.396c11.859 0 19.63-6.281 19.63-15.868 0-11.497-9.769-13.076-17.376-14.472-4.857-.863-8.835-1.653-8.835-4.775 0-2.718 2.347-4.463 6.232-4.463 4.399 0 7.002 1.837 7.094 5.583h12.024c-.092-9.421-7.515-15.776-18.769-15.776-11.254 0-18.769 6.19-18.769 15.078 0 11.075 9.512 13.077 16.954 14.38 4.931.79 8.981 1.745 8.981 4.96 0 3.158-3.189 4.811-6.653 4.811-4.491 0-7.698-2.094-7.79-6.28h-12.281c0 10.027 7.882 16.822 19.558 16.822zm51.339-12.727c-4.673 0-7.258-2.608-7.258-7.163V59.923h12.721V49.638h-12.904V37.444h-2.42l-18.42 19.688v2.791h8.394v20.055c0 10.377 6.306 16.731 16.607 16.731h8.981V85.378H453.42zm14.334-42.02h12.555V31.603h-12.555v11.753zm0 53.351h12.647V49.64h-12.647v47.089-.019zm46.482 1.396c12.189 0 21.794-8.026 23.957-19.871h-12.721c-2.163 5.05-6.14 7.842-11.236 7.842-6.763 0-12.023-5.657-12.023-12.893 0-7.346 5.187-12.911 12.023-12.911a11.97 11.97 0 016.755 1.981 12.002 12.002 0 014.481 5.439h12.556c-2.255-11.607-11.603-19.357-23.718-19.357-14.187 0-24.928 10.633-24.928 24.756 0 14.123 10.741 25.014 24.854 25.014z" fill="#000"/><path d="M79.426 2.006l49.762 28.79a14.958 14.958 0 015.461 5.474c1.309 2.273 2 4.85 2.003 7.475v57.579c0 5.342-2.831 10.297-7.464 12.967l-49.762 28.79a14.926 14.926 0 01-14.946 0l-49.763-28.79a14.957 14.957 0 01-5.464-5.482c-1.31-2.276-2-4.857-2-7.485v-57.58c0-5.34 2.85-10.277 7.464-12.948L64.48 2.006a14.923 14.923 0 0114.946 0zm23.254 43.415L78.341 31.367a14.923 14.923 0 00-14.909 0L39.093 45.42a14.96 14.96 0 00-5.475 5.479 14.998 14.998 0 00-2.007 7.488v28.053c0 5.342 2.85 10.315 7.482 12.968l24.34 14.054a14.928 14.928 0 0014.908 0l24.339-14.054a14.99 14.99 0 007.482-12.967V58.387c0-5.341-2.868-10.315-7.482-12.967z" fill="#3884FF"/><circle cx="72.447" cy="72.397" r="19.09" fill="#000"/></g><defs><clipPath id="prefix__clip0"><path fill="#fff" d="M0 0h543v145.087H0z"/></clipPath></defs></svg>