<svg width="202" height="44" fill="none" xmlns="http://www.w3.org/2000/svg"><path fill-rule="evenodd" clip-rule="evenodd" d="M17.515.83a4 4 0 013.97 0l16.507 9.434a2 2 0 010 3.473l-16.507 9.432a4 4 0 01-3.97 0L4 15.446v5.393l15.5 8.858 16.508-9.433A2 2 0 0139 22v9.42a3 3 0 01-1.511 2.604L21.485 43.17a4 4 0 01-3.97 0L1.008 33.737a2 2 0 011.984-3.474L19.5 39.697 35 30.84v-5.393L21.485 33.17a4 4 0 01-3.97 0L1.512 24.024A3 3 0 010 21.42V12a2 2 0 011.008-1.736L17.516.83zM6.031 12l4.72 2.697 6.764-3.866a4 4 0 013.97 0l6.765 3.866L32.97 12 19.5 4.303 6.031 12zm18.188 5L19.5 14.303 14.781 17l4.72 2.697L24.218 17z" fill="url(#prefix__paint0_linear_11_34)"/><path d="M54.217 28.944c-2.11 0-3.849-.733-5.217-2.198l2.198-2.004c.917 1.03 1.9 1.545 2.946 1.545.531 0 .942-.12 1.232-.362.306-.242.459-.555.459-.942 0-.241-.057-.434-.17-.58-.096-.16-.305-.313-.627-.458-.322-.145-.805-.29-1.45-.435-1.529-.37-2.56-.878-3.09-1.522-.516-.643-.773-1.44-.773-2.39 0-1.127.418-2.045 1.255-2.754.838-.724 1.98-1.086 3.43-1.086 1.046 0 1.924.16 2.632.483.725.322 1.4.885 2.029 1.69l-2.367 1.811c-.29-.45-.628-.788-1.014-1.014-.387-.225-.773-.338-1.16-.338-.499 0-.885.105-1.159.314a.942.942 0 00-.386.797c0 .258.096.483.29.676.209.177.652.354 1.328.532 1.723.45 2.898 1.006 3.526 1.666.644.66.966 1.497.966 2.512a3.57 3.57 0 01-.652 2.076c-.419.612-.998 1.095-1.739 1.45-.74.354-1.57.53-2.487.53zM60.293 16.072h3.26v6.883c0 2.077.838 3.115 2.512 3.115.74 0 1.36-.258 1.86-.773.499-.531.748-1.312.748-2.343v-6.882h3.26V28.63H68.77v-1.884c-.306.74-.757 1.288-1.352 1.642-.596.355-1.377.532-2.343.532-.902 0-1.715-.21-2.44-.628a4.646 4.646 0 01-1.714-1.812c-.419-.788-.628-1.698-.628-2.729v-7.68zM81.077 28.944c-1.014 0-1.843-.185-2.487-.556a3.985 3.985 0 01-1.474-1.618v6.69h-3.26V16.072h3.212V18.1c.37-.74.87-1.304 1.497-1.69.628-.403 1.466-.604 2.512-.604a5.75 5.75 0 013.115.894c.95.595 1.699 1.4 2.246 2.415.564.998.846 2.093.846 3.284a6.567 6.567 0 01-.846 3.284 6.41 6.41 0 01-2.246 2.391 5.87 5.87 0 01-3.115.87zm-4.057-6.545c0 .66.145 1.264.434 1.811.29.548.7.982 1.232 1.305.547.322 1.167.482 1.86.482.676 0 1.272-.16 1.787-.482.531-.339.942-.781 1.231-1.329a3.739 3.739 0 00.46-1.811 3.81 3.81 0 00-.435-1.811c-.29-.548-.7-.983-1.232-1.305a3.301 3.301 0 00-1.811-.507c-.693 0-1.313.17-1.86.508a3.269 3.269 0 00-1.232 1.328 3.81 3.81 0 00-.434 1.811zM94.754 28.92c-1.304 0-2.463-.29-3.478-.87a6.064 6.064 0 01-2.318-2.367c-.547-.998-.821-2.1-.821-3.308 0-1.208.282-2.31.845-3.309a6.365 6.365 0 012.343-2.415c1.014-.596 2.157-.893 3.43-.893 1.255 0 2.374.297 3.356.893a6.194 6.194 0 012.319 2.415c.547.998.821 2.101.821 3.309 0 .419-.033.813-.097 1.183H91.59c.194.757.556 1.353 1.087 1.787.531.419 1.224.628 2.077.628.74 0 1.377-.145 1.908-.434.547-.29.958-.685 1.232-1.184l2.584 1.908c-.515.805-1.28 1.45-2.294 1.932-1.015.483-2.158.725-3.43.725zm3.188-7.922a3.354 3.354 0 00-1.183-1.739c-.564-.466-1.248-.7-2.053-.7-.79 0-1.473.226-2.053.676-.564.435-.942 1.023-1.135 1.763h6.424zM102.676 16.072h3.164v2.39c.225-.917.66-1.61 1.304-2.076.66-.467 1.522-.669 2.584-.604v3.067h-.459c-.966 0-1.763.306-2.391.918-.627.595-.941 1.408-.941 2.439v6.424h-3.261V16.072zM110.813 16.072h3.26V28.63h-3.26V16.072zm-.338-2.97c0-.532.185-.983.555-1.353.387-.37.854-.556 1.401-.556.564 0 1.03.185 1.401.556.37.37.555.82.555 1.352 0 .547-.185 1.006-.555 1.377-.371.37-.837.555-1.401.555a1.953 1.953 0 01-1.401-.555 1.923 1.923 0 01-.555-1.377zM122.208 28.944c-1.272 0-2.415-.29-3.429-.87a6.553 6.553 0 01-2.391-2.39 6.55 6.55 0 01-.869-3.31 6.55 6.55 0 01.869-3.308 6.32 6.32 0 012.391-2.39c1.014-.596 2.157-.894 3.429-.894 1.272 0 2.415.298 3.43.893a6.31 6.31 0 012.39 2.391c.58 1.015.87 2.117.87 3.309 0 1.191-.29 2.294-.87 3.308a6.543 6.543 0 01-2.39 2.391c-1.015.58-2.158.87-3.43.87zm-3.429-6.57c0 .661.137 1.265.41 1.812.29.548.693.982 1.208 1.304.531.322 1.135.483 1.811.483.676 0 1.272-.16 1.787-.483a3.14 3.14 0 001.208-1.304c.29-.547.435-1.151.435-1.811 0-.66-.145-1.264-.435-1.811a3.362 3.362 0 00-1.208-1.305c-.515-.338-1.111-.507-1.787-.507-.676 0-1.272.17-1.787.508a3.36 3.36 0 00-1.207 1.304 3.809 3.809 0 00-.435 1.81zM130.341 16.072h3.164v2.39c.225-.917.66-1.61 1.304-2.076.66-.467 1.521-.669 2.584-.604v3.067h-.459c-.966 0-1.763.306-2.391.918-.628.595-.942 1.408-.942 2.439v6.424h-3.26V16.072zM147.611 28.944c-2.109 0-3.848-.733-5.216-2.198l2.197-2.004c.918 1.03 1.9 1.545 2.947 1.545.531 0 .942-.12 1.231-.362.306-.242.459-.555.459-.942 0-.241-.056-.434-.169-.58-.096-.16-.306-.313-.628-.458-.322-.145-.805-.29-1.449-.435-1.529-.37-2.56-.878-3.091-1.522-.515-.643-.773-1.44-.773-2.39 0-1.127.419-2.045 1.256-2.754.837-.724 1.98-1.086 3.429-1.086 1.047 0 1.924.16 2.633.483.724.322 1.401.885 2.028 1.69l-2.366 1.811c-.29-.45-.628-.788-1.015-1.014-.386-.225-.772-.338-1.159-.338-.499 0-.885.105-1.159.314a.941.941 0 00-.387.797c0 .258.097.483.29.676.21.177.652.354 1.329.532 1.722.45 2.898 1.006 3.526 1.666.644.66.966 1.497.966 2.512 0 .756-.218 1.449-.652 2.076-.419.612-.999 1.095-1.739 1.45-.741.354-1.57.53-2.488.53zM158.306 28.63c-1.272 0-2.23-.314-2.874-.942-.644-.628-.966-1.61-.966-2.946v-5.893h-1.763v-2.777h1.763v-2.536l3.26-.338v2.874h2.657v2.777h-2.657v5.724c0 .772.338 1.159 1.014 1.159h1.353v2.898h-1.787zM167.397 25.997c.693 0 1.304-.16 1.836-.482a3.264 3.264 0 001.256-1.305 3.82 3.82 0 00.434-1.81 3.82 3.82 0 00-.434-1.812 3.225 3.225 0 00-1.256-1.329c-.532-.338-1.143-.507-1.836-.507a3.3 3.3 0 00-1.811.508 3.313 3.313 0 00-1.232 1.304 3.808 3.808 0 00-.434 1.81c0 .645.144 1.249.434 1.812.306.548.717.99 1.232 1.329.531.322 1.135.482 1.811.482zm-6.738-3.598c0-1.191.274-2.286.821-3.284a6.556 6.556 0 012.271-2.415 5.747 5.747 0 013.115-.894c1.03 0 1.86.193 2.487.58.644.386 1.144.941 1.498 1.666v-1.98h3.236V28.63h-3.164v-2.053c-.37.757-.877 1.345-1.521 1.763-.628.403-1.473.604-2.536.604a5.866 5.866 0 01-3.115-.87 6.61 6.61 0 01-2.271-2.39c-.547-.999-.821-2.094-.821-3.285zM182.279 28.944c-1.336 0-2.52-.29-3.55-.87a6.37 6.37 0 01-2.367-2.39c-.547-.999-.821-2.11-.821-3.333 0-1.224.274-2.335.821-3.333a6.196 6.196 0 012.367-2.367c1.03-.596 2.214-.893 3.55-.893 2.158 0 3.848.764 5.072 2.294l-2.56 2.101a3.241 3.241 0 00-1.111-1.038c-.419-.258-.902-.387-1.449-.387-.676 0-1.272.17-1.787.507a3.362 3.362 0 00-1.208 1.305 3.808 3.808 0 00-.435 1.81c0 .645.145 1.248.435 1.812.306.547.725.99 1.256 1.328.531.322 1.135.483 1.811.483 1.063 0 1.981-.515 2.753-1.545l2.44 2.15c-.677.772-1.433 1.36-2.271 1.762-.837.403-1.819.604-2.946.604zM191.949 22.665v5.965h-3.26V11h3.26v10.143l4.71-5.071h4.637l-5.917 5.844 5.941 6.714h-4.323l-5.048-5.965z" fill="#000"/><defs><linearGradient id="prefix__paint0_linear_11_34" x1="2" y1="2" x2="37" y2="42" gradientUnits="userSpaceOnUse"><stop stop-color="#21D4FD"/><stop offset="1" stop-color="#B721FF"/></linearGradient></defs></svg>